<svg version="1.0" xmlns="http://www.w3.org/2000/svg"  width="300.000000pt" height="300.000000pt" viewBox="0 0 300.000000 300.000000"  preserveAspectRatio="xMidYMid meet">  <g transform="translate(0.000000,300.000000) scale(0.100000,-0.100000)" fill="#4d89b8" stroke="none"> <path d="M1324 2716 c-148 -34 -281 -105 -392 -210 -171 -162 -252 -349 -252 -580 0 -205 54 -354 195 -540 114 -152 551 -648 587 -667 44 -24 69 -11 156 79 104 108 393 439 478 548 164 210 225 369 225 583 -1 224 -86 418 -255 578 -92 88 -183 142 -306 184 -86 29 -109 33 -235 35 -94 3 -160 -1 -201 -10z m371 -37 c330 -80 583 -383 599 -717 4 -86 -12 -214 -36 -277 -38 -102 -106 -223 -168 -298 -294 -358 -502 -592 -563 -631 -39 -26 -53 -16 -210 156 -100 109 -112 123 -159 180 -40 49 -88 105 -148 173 -82 91 -199 261 -236 340 -47 104 -66 198 -65 323 1 318 192 595 494 717 157 64 321 75 492 34z"/> <path d="M1410 2592 c-117 -10 -277 -84 -373 -173 -75 -68 -99 -112 -75 -136 9 -8 27 -16 41 -16 40 -3 22 -14 -33 -22 -63 -9 -100 -36 -84 -62 6 -10 26 -26 45 -35 19 -9 28 -17 21 -18 -31 -1 -51 -44 -51 -105 0 -99 25 -114 178 -108 74 3 99 7 118 23 14 11 28 18 32 16 3 -2 4 -29 3 -59 -4 -59 -18 -75 -51 -58 -11 6 -33 6 -57 1 -55 -13 -61 -12 -67 10 -5 18 -14 20 -75 20 -39 0 -74 -4 -77 -10 -4 -6 22 -10 69 -10 48 0 76 -4 76 -11 0 -7 -26 -9 -74 -7 -59 2 -72 0 -64 -9 6 -8 34 -13 69 -13 l59 0 -22 -42 c-28 -54 -42 -65 -86 -66 -20 -1 -42 -8 -51 -16 -34 -34 40 -156 94 -156 13 0 36 5 52 11 34 13 191 13 241 0 20 -5 51 -12 67 -14 17 -3 77 -19 133 -36 235 -73 382 -80 500 -24 150 71 239 313 206 562 -9 66 -8 59 -22 94 -7 16 -12 33 -12 38 0 5 -17 42 -37 81 -51 98 -172 220 -268 270 -124 64 -276 93 -425 80z m217 -37 c306 -59 525 -321 525 -630 1 -208 -83 -380 -211 -438 -33 -15 -73 -22 -141 -25 -102 -4 -136 2 -385 72 -160 45 -306 57 -398 33 l-58 -15 -35 53 c-19 30 -34 59 -34 65 0 6 26 10 65 10 52 0 65 3 65 15 0 56 72 125 130 125 50 0 102 -44 123 -103 l12 -37 198 -2 c207 -3 207 -3 207 42 0 30 48 79 88 90 73 20 151 -26 167 -100 6 -29 8 -30 65 -30 48 0 61 4 69 19 7 13 6 24 -4 37 -8 11 -15 42 -15 69 0 68 -16 121 -42 140 -12 8 -49 24 -83 35 -54 18 -67 28 -118 90 -31 38 -57 73 -57 76 0 3 14 3 30 -1 42 -9 80 16 80 53 0 32 -78 140 -116 160 -19 10 -68 13 -199 10 l-173 -3 -39 -31 -38 -31 -174 -7 -173 -7 31 40 c145 183 396 272 638 226z m137 -247 c19 -18 43 -49 54 -68 20 -32 20 -36 5 -52 -9 -10 -24 -18 -34 -18 -10 0 -25 -10 -33 -22 -14 -20 -19 -21 -46 -11 -16 6 -55 10 -87 8 -73 -4 -93 -25 -93 -99 0 -83 19 -96 133 -96 101 1 123 10 136 56 l7 29 20 -24 c17 -21 110 -71 132 -71 5 0 14 -6 20 -13 9 -10 6 -17 -8 -30 -11 -9 -20 -21 -20 -26 0 -18 41 -60 63 -63 12 -2 21 -9 20 -15 -2 -7 1 -23 6 -37 8 -18 6 -28 -7 -39 -24 -21 -53 -7 -77 39 -55 106 -209 114 -272 14 -40 -63 -45 -67 -116 -69 -80 -2 -123 7 -108 22 7 7 11 75 11 188 l0 178 -26 20 c-14 11 -30 22 -37 24 -7 3 -1 13 16 26 53 43 20 87 -62 82 -55 -3 -91 5 -91 20 0 5 8 9 18 9 9 1 40 16 67 35 l50 35 163 0 163 0 33 -32z m-339 -113 c0 -19 -7 -20 -260 -20 -238 0 -260 1 -263 17 -3 16 13 18 180 21 332 5 343 5 343 -18z m-148 -57 c5 -9 -38 -58 -52 -58 -11 0 -45 40 -45 54 0 16 87 19 97 4z m463 -78 c23 -33 38 -65 35 -70 -3 -6 -53 -10 -111 -10 l-104 0 0 63 c0 35 3 67 7 70 3 4 35 7 69 7 l63 0 41 -60z m-552 -28 c2 -38 -2 -69 -9 -78 -8 -10 -38 -14 -114 -14 -57 0 -110 3 -119 6 -12 5 -16 21 -16 73 0 37 3 71 7 75 4 3 61 5 127 4 l121 -3 3 -63z m246 60 c3 -5 6 -87 7 -183 l1 -174 -64 -3 -64 -3 -13 36 c-7 20 -19 39 -27 42 -19 7 -21 262 -2 281 14 14 154 17 162 4z m574 -214 c14 -14 16 -48 3 -48 -15 0 -41 30 -41 46 0 17 22 18 38 2z"/> <path d="M1096 1749 c-20 -16 -26 -29 -26 -57 1 -43 16 -67 53 -81 32 -13 83 3 97 29 45 83 -50 167 -124 109z m79 -59 c0 -20 -5 -25 -25 -25 -28 0 -41 32 -18 46 23 15 43 5 43 -21z"/> <path d="M1769 1757 c-47 -36 -51 -95 -8 -131 35 -30 49 -32 89 -11 55 28 67 89 25 130 -27 27 -79 33 -106 12z m70 -51 c17 -20 2 -46 -25 -46 -29 0 -41 24 -24 45 16 19 34 19 49 1z"/> <path d="M1531 2296 c-30 -31 -25 -76 9 -93 14 -7 59 -13 101 -13 61 0 79 4 92 18 24 27 21 50 -12 83 -27 26 -36 29 -98 29 -60 0 -72 -3 -92 -24z m183 -31 c9 -13 16 -29 16 -35 0 -14 -187 -13 -195 1 -4 5 -4 21 -1 35 6 23 10 24 85 24 73 0 80 -2 95 -25z"/> <path d="M1555 1906 c-23 -16 -14 -42 19 -58 20 -9 30 -8 51 6 30 20 32 41 6 56 -27 14 -54 13 -76 -4z m75 -21 c0 -16 -64 -22 -74 -6 -9 14 5 21 41 21 23 0 33 -5 33 -15z"/> </g> </svg>


