<?xml version="1.0" encoding="UTF-8"?>
<svg version="1.1" xmlns="http://www.w3.org/2000/svg" width="1024" height="1024">
  <path
    d="M0 0 C337.92 0 675.84 0 1024 0 C1024 337.92 1024 675.84 1024 1024 C686.08 1024 348.16 1024 0 1024 C0 686.08 0 348.16 0 0 Z "
    fill="none" transform="translate(0,0)" />
  <path
    d="M0 0 C0.56058105 0.41926758 1.12116211 0.83853516 1.69873047 1.27050781 C11.40993138 8.54639209 20.2783299 16.57406327 29 25 C29.52255371 25.50063965 30.04510742 26.0012793 30.58349609 26.51708984 C37.27753858 32.94801897 43.26338324 39.71032287 49 47 C49.88307744 48.09328646 50.76723606 49.1857003 51.65234375 50.27734375 C79.88403235 85.31395111 98.52388074 126.58824582 107.8125 170.5 C108.10471436 171.87599365 108.10471436 171.87599365 108.40283203 173.27978516 C111.55510463 188.93005485 112.37286291 204.14339441 112.3125 220.0625 C112.30976578 221.55709244 112.30976578 221.55709244 112.30697632 223.08187866 C112.26223334 237.59973626 111.77415911 251.71417277 109 266 C108.75056641 267.39992188 108.75056641 267.39992188 108.49609375 268.828125 C100.04125253 316.17523584 79.52950114 360.10133395 50.34912109 398.22705078 C48.91930277 400.10604837 47.51443128 402.001885 46.11328125 403.90234375 C39.46018519 412.90352709 32.51298932 421.6274594 25.40869141 430.27539062 C23.55982915 432.53888507 21.74809255 434.83083305 19.9375 437.125 C16.23658524 441.77066304 12.36898663 446.26402349 8.48974609 450.76049805 C5.45984999 454.27790338 2.48386607 457.82875367 -0.4375 461.4375 C-5.58278919 467.76945047 -10.9451771 473.90711528 -16.30615234 480.05615234 C-19.06346705 483.2204273 -21.81325468 486.39121417 -24.5625 489.5625 C-25.09810547 490.17988037 -25.63371094 490.79726074 -26.18554688 491.43334961 C-30.39883994 496.29430275 -34.5784841 501.18345559 -38.75537109 506.07568359 C-41.68262923 509.49390283 -44.65809681 512.85883168 -47.6875 516.1875 C-50.66024023 519.45804605 -53.48485914 522.80235614 -56.25 526.25 C-60.90658812 532.00946426 -65.92834177 537.37948699 -70.9921875 542.77734375 C-73.8422557 545.81794331 -76.60488811 548.92348424 -79.328125 552.078125 C-81.35758073 554.41105074 -83.427647 556.70511245 -85.5 559 C-88.15113994 561.93678465 -90.78290171 564.88602542 -93.375 567.875 C-96.78576974 571.79106896 -100.29361795 575.61574925 -103.81201172 579.43481445 C-106.74073821 582.61601737 -109.63032737 585.82768981 -112.5 589.0625 C-115.76118808 592.70357558 -119.14867702 596.19056753 -122.625 599.625 C-125.61820043 602.5852175 -128.53466066 605.53336724 -131.25 608.75 C-134.79616171 612.88861972 -138.60438195 616.75435755 -142.4375 620.625 C-143.05850586 621.25889648 -143.67951172 621.89279297 -144.31933594 622.54589844 C-151.77310651 630.01528718 -158.40872391 635.69145216 -169.3125 636.4375 C-179.6448974 636.12227432 -187.01567862 628.84675142 -194 622 C-194.93328125 621.09378906 -195.8665625 620.18757812 -196.828125 619.25390625 C-201.51346509 614.66040426 -205.99957117 609.95265581 -210.2578125 604.9609375 C-212.89771838 601.98956362 -215.74194023 599.23543112 -218.59375 596.46875 C-220.57206614 594.43904902 -222.43421126 592.37831259 -224.2890625 590.23828125 C-228.02566563 585.93105891 -231.937691 581.81056241 -235.875 577.6875 C-241.07401329 572.20851702 -246.0327459 566.65759169 -250.73046875 560.73828125 C-253.5259692 557.36539688 -256.49728096 554.18797677 -259.5 551 C-264.12626335 546.08700124 -268.47271449 541.04877328 -272.69140625 535.77734375 C-275.35279673 532.57556942 -278.15465085 529.53768068 -281 526.5 C-285.47920355 521.71688315 -289.68451839 516.79184532 -293.7890625 511.6796875 C-296.1093495 508.86746685 -298.53071134 506.18202737 -301 503.5 C-305.11378909 499.0301488 -308.97087297 494.40955107 -312.78515625 489.68359375 C-314.95632827 487.05291443 -317.20241357 484.52057576 -319.5 482 C-323.32170863 477.80270966 -326.91474189 473.46289769 -330.484375 469.05078125 C-333.42925654 465.47942646 -336.45738262 461.98804955 -339.5 458.5 C-344.78902289 452.42809248 -349.93979904 446.26461243 -355 440 C-356.00599761 438.76390539 -357.01254572 437.52825869 -358.01953125 436.29296875 C-361.35382949 432.20135356 -364.67831948 428.10186171 -368 424 C-368.51498047 423.36513672 -369.02996094 422.73027344 -369.56054688 422.07617188 C-390.51284243 396.21613141 -409.71517827 369.16245154 -424 339 C-424.32709961 338.31921387 -424.65419922 337.63842773 -424.99121094 336.93701172 C-455.76724828 272.45746031 -458.54395566 196.16558323 -434.8984375 129.0703125 C-424.23243973 99.97008244 -408.68556292 72.88486926 -389 49 C-388.55785156 48.4548877 -388.11570312 47.90977539 -387.66015625 47.34814453 C-375.65697047 32.59205418 -362.16667481 18.51582461 -347 7 C-345.72914738 5.99124579 -344.45973385 4.98067714 -343.19140625 3.96875 C-304.55877143 -26.58229178 -256.22810226 -46.67368198 -207.35302734 -52.70751953 C-205.0718541 -52.99106856 -202.79636177 -53.30482565 -200.51953125 -53.62109375 C-131.04010993 -62.68855493 -55.64353741 -42.38387235 0 0 Z "
    fill="#1447e6" transform="translate(681,146)" />
  <path
    d="M0 0 C0.68852051 0.09651855 1.37704102 0.19303711 2.08642578 0.29248047 C45.06758171 6.45577785 87.00867447 25.32971989 118.8515625 55.00390625 C120.81040872 56.82385246 122.82295875 58.53717373 124.875 60.25 C140.44791508 73.91538934 152.62676998 91.19391522 163 109 C163.3825293 109.65516602 163.76505859 110.31033203 164.15917969 110.98535156 C177.53336816 134.23340808 185.37278443 159.71430482 190 186 C190.34224609 187.84851563 190.34224609 187.84851563 190.69140625 189.734375 C198.38398388 239.00990721 186.76024838 295.71237268 158 336.625 C141.46928171 359.17345099 115.76991951 372.36873849 88.51757812 377.22851562 C69.47898121 379.90928667 47.89548202 379.35088196 29 376 C28.15550293 375.8546582 27.31100586 375.70931641 26.44091797 375.55957031 C6.04495835 371.94052453 -13.65879815 365.74211709 -33.4465332 359.74319458 C-90.25296356 342.52487052 -150.94413375 325.15836634 -209.65234375 344.18359375 C-213.12520154 345.0305334 -214.72656399 345.39283618 -218 344 C-219.81995797 341.99623832 -221.25889194 340.16454591 -222.75 337.9375 C-223.39026123 337.00997925 -223.39026123 337.00997925 -224.04345703 336.0637207 C-241 311.02920826 -241 311.02920826 -241 303 C-239.70263916 302.97494385 -238.40527832 302.9498877 -237.06860352 302.92407227 C-232.27341144 302.83018248 -227.4783705 302.72991751 -222.68334961 302.62768555 C-220.60460943 302.58426666 -218.52583197 302.54259688 -216.44702148 302.50268555 C-213.46586855 302.44515079 -210.48490451 302.38140881 -207.50390625 302.31640625 C-206.10078941 302.29133751 -206.10078941 302.29133751 -204.66932678 302.26576233 C-203.80850998 302.24581711 -202.94769318 302.22587189 -202.06079102 302.20532227 C-201.29912125 302.18977798 -200.53745148 302.1742337 -199.75270081 302.15821838 C-197.97264994 302.18620671 -197.97264994 302.18620671 -197 301 C-196.60836329 298.77369595 -196.23732215 296.54376235 -195.875 294.3125 C-193.68952137 282.3964038 -188.40724918 270.51210275 -178.49609375 263.13671875 C-166.98584562 255.40452146 -156.6962064 253.62306539 -143 255 C-130.8121298 257.55901901 -121.34196597 265.18690541 -114 275 C-108.70194016 283.52697691 -107.89470927 291.89488387 -106 302 C-61.45 302 -16.9 302 29 302 C30.32 296.39 31.64 290.78 33 285 C37.33126861 273.0516728 44.90398338 264.22591311 56.4375 258.75 C69.46939692 253.41270433 81.9420061 253.75377827 95 259 C105.91741926 263.86435156 113.42455152 272.87187374 117.91723633 283.86206055 C119.11415662 287.3308354 119.89345414 290.7621871 120.6328125 294.35546875 C121.02170654 296.22755005 121.02170654 296.22755005 121.41845703 298.13745117 C121.61036621 299.08209229 121.80227539 300.0267334 122 301 C127.33852794 301.0494731 132.67692214 301.08575425 138.015625 301.10986328 C139.83140386 301.11991491 141.64716656 301.13355828 143.46289062 301.15087891 C146.07425935 301.17516406 148.68541387 301.18649148 151.296875 301.1953125 C152.51271271 301.21079636 152.51271271 301.21079636 153.75311279 301.22659302 C159.19920111 301.26738106 159.19920111 301.26738106 164 299 C166.08602303 295.95427309 166.3515912 293.20604386 166.4375 289.5625 C166.47746094 288.63566406 166.51742188 287.70882813 166.55859375 286.75390625 C166.23529598 283.76955854 166.23529598 283.76955854 163.5300293 281.74755859 C160.46112669 278.41479492 160.26647864 276.74795503 159.9609375 272.28515625 C159.88417534 271.31909203 159.88417534 271.31909203 159.80586243 270.33351135 C159.69860986 268.95697103 159.60134281 267.57962193 159.51327515 266.20172119 C159.32660304 263.31376239 159.08484423 260.43120932 158.84666443 257.54711914 C158.66906968 255.38450007 158.49894718 253.22138335 158.32958984 251.05810547 C157.44816945 230.33003482 157.44816945 230.33003482 147.13671875 213.296875 C138.87620839 207.13649439 128.30340566 204.15971913 118.68359375 200.76171875 C117.57242187 200.36766846 116.46125 199.97361816 115.31640625 199.56762695 C113.0994733 198.78513292 110.87948573 198.01122887 108.65625 197.24682617 C94.14764904 192.15364611 86.63493988 182.79625621 77.45703125 170.88476562 C75.53945359 168.40425296 73.60099881 165.94054791 71.66040039 163.47802734 C70.27944022 161.72487486 68.90318502 159.96810838 67.52734375 158.2109375 C65.95193293 156.20197648 64.36088293 154.21082936 62.75390625 152.2265625 C62.11324219 151.42992187 61.47257812 150.63328125 60.8125 149.8125 C60.26207031 149.13832031 59.71164062 148.46414063 59.14453125 147.76953125 C58 146 58 146 58 143 C58.65484375 142.9906543 59.3096875 142.98130859 59.984375 142.97167969 C62.99030905 142.9175474 65.99475775 142.83398611 69 142.75 C70.54494141 142.72873047 70.54494141 142.72873047 72.12109375 142.70703125 C78.47124028 142.50479728 83.77373925 141.85024292 89 138 C93.07889085 132.77065276 94.30427911 127.60863558 94 121 C92.01665334 113.82077116 88.25005601 107.95048361 83.8125 102.0625 C83.23878662 101.28543701 82.66507324 100.50837402 82.07397461 99.70776367 C77.56661912 93.64480011 72.87370377 87.77254258 68 82 C67.4946875 81.33742188 66.989375 80.67484375 66.46875 79.9921875 C60.26720355 72.03353622 51.62487532 68.26695493 42 66 C38.64127841 65.61790321 35.32934206 65.58830538 31.95141602 65.61181641 C31.00202148 65.60655945 30.05262695 65.60130249 29.07446289 65.59588623 C25.96743828 65.58279106 22.86093517 65.59138777 19.75390625 65.6015625 C17.5749451 65.59953859 15.39598461 65.59662451 13.21702576 65.59286499 C8.66211464 65.58845567 4.10738067 65.59482721 -0.44750977 65.60888672 C-6.26204525 65.62596736 -12.07616487 65.61613539 -17.89068508 65.59816933 C-22.38706039 65.58728516 -26.8833385 65.59079922 -31.37971687 65.5985527 C-33.52255364 65.60054245 -35.66539946 65.59813893 -37.80822563 65.59111404 C-53.18443907 65.3474958 -53.18443907 65.3474958 -68 69 C-69.20269531 69.474375 -70.40539062 69.94875 -71.64453125 70.4375 C-80.75116904 74.92905995 -88.23171476 80.52146838 -96 87 C-102.27306705 92.12609277 -102.27306705 92.12609277 -107.49246216 92.12025452 C-108.43759674 92.12162918 -109.38273132 92.12300385 -110.35650635 92.12442017 C-111.39659851 92.12082489 -112.43669067 92.11722961 -113.50830078 92.11352539 C-114.60099274 92.11367142 -115.69368469 92.11381744 -116.81948853 92.1139679 C-120.44478312 92.11326914 -124.07002684 92.10547842 -127.6953125 92.09765625 C-130.20352144 92.09579194 -132.71173075 92.0943681 -135.21994019 92.09336853 C-141.15559799 92.08993561 -147.09123937 92.08204764 -153.02688873 92.07201904 C-160.44630797 92.05975505 -167.86572947 92.05437629 -175.28515625 92.04882812 C-188.52344684 92.0380926 -201.76172226 92.02120871 -215 92 C-213.11137541 88.01997445 -210.59696382 84.69226707 -207.875 81.25 C-207.38435059 80.62746338 -206.89370117 80.00492676 -206.38818359 79.36352539 C-202.56045081 74.57043515 -198.47602094 70.19691571 -194 66 C-193.195625 65.195625 -192.39125 64.39125 -191.5625 63.5625 C-190.716875 62.716875 -189.87125 61.87125 -189 61 C-188.43667969 60.39027344 -187.87335938 59.78054687 -187.29296875 59.15234375 C-179.97734894 51.44506551 -171.56253088 45.23785296 -163 39 C-162.39446289 38.5551123 -161.78892578 38.11022461 -161.16503906 37.65185547 C-115.43768708 4.4274677 -55.55327803 -8.23059232 0 0 Z "
    fill="#ffffff" transform="translate(544,149)" />
  <path
    d="M0 0 C0.94147888 -0.01606293 1.88295776 -0.03212585 2.85296631 -0.04867554 C7.1656423 -0.09313743 11.47816395 -0.13419979 15.79101562 -0.15722656 C18.06455732 -0.17377675 20.33804719 -0.20105415 22.61132812 -0.23925781 C25.88992296 -0.29407584 29.16729739 -0.31590984 32.44628906 -0.33056641 C33.45898865 -0.35323578 34.47168823 -0.37590515 35.51507568 -0.39926147 C40.11173257 -0.38553041 43.41911989 -0.36363601 47.08789062 2.60058594 C50.17840932 5.97523912 50.58693425 7.41302746 50.61581421 11.85496521 C50.62441467 12.83783508 50.63301514 13.82070496 50.64187622 14.83335876 C50.64613617 15.91549149 50.65039612 16.99762421 50.65478516 18.11254883 C50.66705139 19.81751022 50.66705139 19.81751022 50.67956543 21.55691528 C50.70444363 25.33009304 50.72093901 29.10323319 50.73535156 32.87646484 C50.74067524 34.16169603 50.74599892 35.44692722 50.75148392 36.77110481 C50.7727156 42.16953522 50.79184681 47.56795334 50.80310631 52.96641445 C50.81935917 60.70830521 50.85257326 68.44969519 50.90950716 76.19139713 C50.95281758 82.28788951 50.96884507 88.38418478 50.9752388 94.48082161 C50.98197795 97.07688022 50.99726831 99.67293078 51.02112961 102.26888847 C51.05255957 105.89425154 51.05285101 109.51833672 51.04541016 113.14379883 C51.06181549 114.22390732 51.07822083 115.30401581 51.09512329 116.41685486 C51.07246145 119.10214641 51.01259939 121.56503592 50.46191406 124.19287109 C47.64533001 126.86918788 45.23814819 127.57189685 41.40600586 127.53344727 C40.64559494 127.53322067 39.88518402 127.53299408 39.10173035 127.53276062 C38.29633316 127.51727676 37.49093597 127.50179291 36.66113281 127.48583984 C35.40657036 127.47947258 35.40657036 127.47947258 34.12666321 127.47297668 C31.46724641 127.45624473 28.80860006 127.41860335 26.14941406 127.38037109 C24.34148233 127.36531714 22.53353867 127.35162997 20.72558594 127.33935547 C16.30406717 127.30635925 11.88312105 127.25461537 7.46191406 127.19287109 C6.7550647 125.65240112 6.7550647 125.65240112 6.03393555 124.08081055 C5.404613 122.71835363 4.77512852 121.3559715 4.14550781 119.99365234 C3.83625366 119.31854614 3.52699951 118.64343994 3.20837402 117.94787598 C0.96264872 113.10059382 -1.63458649 108.68009751 -4.53808594 104.19287109 C-4.53808594 103.53287109 -4.53808594 102.87287109 -4.53808594 102.19287109 C-5.32183594 101.90412109 -6.10558594 101.61537109 -6.91308594 101.31787109 C-9.53808594 100.19287109 -9.53808594 100.19287109 -11.53808594 98.19287109 C-11.75258579 95.33330283 -11.84220239 92.56943185 -11.84448242 89.70751953 C-11.85280594 88.82929031 -11.86112946 87.9510611 -11.8697052 87.04621887 C-11.89387673 84.13151665 -11.90258708 81.21703804 -11.90917969 78.30224609 C-11.91814234 76.27923514 -11.92726411 74.25622488 -11.9365387 72.23321533 C-11.95305191 67.98618965 -11.96073274 63.739243 -11.96362305 59.4921875 C-11.96900164 54.05341179 -12.00665027 48.61538067 -12.05236721 43.17681503 C-12.08213472 38.99545595 -12.08934658 34.81427596 -12.0903492 30.63282013 C-12.09455402 28.62816212 -12.10699879 26.62350369 -12.12786674 24.61894989 C-12.1547675 21.81068062 -12.14995906 19.00413375 -12.13745117 16.19580078 C-12.15228546 15.36959732 -12.16711975 14.54339386 -12.18240356 13.69215393 C-12.12996976 9.5513977 -11.77243093 6.96982573 -9.12562561 3.69268799 C-5.8250232 0.50398261 -4.43647739 0.06872627 0 0 Z "
    fill="#ffffff" transform="translate(442.5380859375,306.80712890625)" />
  <path
    d="M0 0 C1.12977768 -0.01007584 1.12977768 -0.01007584 2.28237915 -0.02035522 C4.77441999 -0.03936634 7.26619192 -0.04326102 9.75830078 -0.04541016 C11.49081534 -0.05183618 13.2233288 -0.0585644 14.95584106 -0.06558228 C18.58907588 -0.077563 22.22221557 -0.08126231 25.85546875 -0.08007812 C30.50842487 -0.07987495 35.16077011 -0.10717193 39.81358147 -0.14162254 C43.39269811 -0.16387402 46.97166737 -0.1679162 50.5508461 -0.16685867 C52.26604441 -0.16921747 53.98124661 -0.17805674 55.6963768 -0.19352341 C58.09749704 -0.21314758 60.49729541 -0.20736023 62.8984375 -0.1953125 C63.95843964 -0.21217102 63.95843964 -0.21217102 65.03985596 -0.22937012 C69.8239348 -0.16845485 72.19627558 0.94275242 75.57861328 4.29052734 C78.2175455 7.87058591 77.86797031 11.8867572 77.84423828 16.16162109 C77.84615173 16.92096451 77.84806519 17.68030792 77.85003662 18.46266174 C77.85139499 20.06552462 77.84772288 21.66839862 77.83935547 23.27124023 C77.82866555 25.71607372 77.83925459 28.16016998 77.85205078 30.60498047 C77.85072883 32.16552896 77.84816571 33.72607699 77.84423828 35.28662109 C77.84828674 36.01384872 77.85233521 36.74107635 77.85650635 37.49034119 C77.80671926 42.91924113 77.37299733 46.49162544 73.47564697 50.39878845 C69.89734732 52.73538835 67.06399468 52.85568184 62.93017578 52.80810547 C62.17669861 52.81511475 61.42322144 52.82212402 60.64691162 52.8293457 C58.16543317 52.84689782 55.68510258 52.83531366 53.20361328 52.82177734 C51.47395611 52.82447308 49.74430043 52.82835618 48.01464844 52.83337402 C44.39324486 52.83926527 40.77223647 52.83071836 37.15087891 52.81201172 C32.51360619 52.78922214 27.87725951 52.80234726 23.24002075 52.82630157 C19.66944426 52.84076979 16.09908658 52.83614892 12.52850342 52.82579041 C10.81890757 52.82312594 9.10929173 52.82638305 7.39971924 52.83570862 C5.00829604 52.84589143 2.61836323 52.83035083 0.22705078 52.80810547 C-0.47647522 52.81620239 -1.18000122 52.82429932 -1.90484619 52.8326416 C-6.66366486 52.75081219 -9.07493999 51.65010431 -12.42138672 48.29052734 C-14.03400727 45.06528624 -13.60573138 41.53797381 -13.62451172 37.99365234 C-13.63021179 37.16726257 -13.63591187 36.3408728 -13.64178467 35.48944092 C-13.65124023 33.73760256 -13.65777085 31.98574637 -13.66162109 30.23388672 C-13.67129818 27.56494652 -13.70230378 24.89678578 -13.73388672 22.22802734 C-13.74041976 20.52490691 -13.74566905 18.82178097 -13.74951172 17.11865234 C-13.76803192 15.92770966 -13.76803192 15.92770966 -13.78692627 14.71270752 C-13.76754937 9.84520357 -13.14381639 6.49298909 -10.42138672 2.29052734 C-6.80983869 -0.11717135 -4.17319321 -0.00532205 0 0 Z "
    fill="#ffffff" transform="translate(329.42138671875,307.70947265625)" />
  <path
    d="M0 0 C0.93549683 -0.00336868 1.87099365 -0.00673737 2.83483887 -0.01020813 C4.80840566 -0.00990975 6.78201925 0.00529508 8.75537109 0.03442383 C11.77195003 0.07409644 14.78413011 0.05512858 17.80078125 0.02929688 C19.72137118 0.03685644 21.64195137 0.04781036 23.5625 0.0625 C24.91112122 0.05202385 24.91112122 0.05202385 26.2869873 0.04133606 C30.75223763 0.14175147 32.67014479 0.2725438 36.25708008 3.14379883 C36.92505615 4.0077124 37.59303223 4.87162598 38.28125 5.76171875 C38.97605469 6.61507813 39.67085937 7.4684375 40.38671875 8.34765625 C59.68825483 34.20374774 59.68825483 34.20374774 60.78125 40.76171875 C60.09595813 44.87346995 58.47376789 46.14947524 55.28125 48.76171875 C52.23924255 49.38317871 52.23924255 49.38317871 48.81030273 49.37695312 C47.52224228 49.38625854 46.23418182 49.39556396 44.90708923 49.40515137 C43.50966286 49.38956571 42.11224732 49.37298077 40.71484375 49.35546875 C39.27425741 49.35375661 37.83366794 49.35382438 36.39308167 49.35559082 C33.37934412 49.35394005 30.36635268 49.33528659 27.3527832 49.30371094 C23.49343825 49.26399736 19.63506808 49.25967106 15.77555752 49.26717377 C12.80291339 49.27024552 9.83048769 49.25811642 6.8578968 49.24104309 C5.43497144 49.23402203 4.01202133 49.23088747 2.5890789 49.23173523 C0.6002509 49.22993427 -1.38852092 49.20626771 -3.37719727 49.18164062 C-4.50795181 49.17322144 -5.63870636 49.16480225 -6.8037262 49.15612793 C-10.02162118 48.72073961 -11.39637579 47.98610548 -13.71875 45.76171875 C-16.07028749 40.31448633 -15.02501862 32.72087415 -15.06884766 26.8359375 C-15.08541429 25.20656051 -15.11271418 23.5772564 -15.15087891 21.94824219 C-15.20584325 19.58620939 -15.22754576 17.22586861 -15.2421875 14.86328125 C-15.26485687 14.1412149 -15.28752625 13.41914856 -15.31088257 12.67520142 C-15.29512179 8.87407014 -14.64997162 6.63816013 -12.79345703 3.30297852 C-8.52673867 -0.2234842 -5.38447217 -0.09152445 0 0 Z "
    fill="#ffffff" transform="translate(545.71875,300.23828125)" />
  <path
    d="M0 0 C7.23234576 4.33212657 12.1270768 10.79193558 14.375 18.9375 C15.40750837 26.82881395 14.39818242 33.09149451 10.375 39.9375 C10.01277344 40.57558594 9.65054688 41.21367187 9.27734375 41.87109375 C5.06680449 48.50804547 -1.18180533 51.84496192 -8.625 53.9375 C-19.41373143 55.15187143 -26.92147595 53.37357426 -35.4375 46.75 C-40.5113977 40.22641725 -43.48138204 34.1234725 -43.04296875 25.734375 C-41.69981848 16.74656573 -37.93723024 7.97963344 -30.56640625 2.37109375 C-21.78346793 -3.28544084 -9.65574519 -4.49618669 0 0 Z "
    fill="#1447e6" transform="translate(633.625,422.0625)" />
  <path
    d="M0 0 C6.77698466 5.4993564 9.93286083 11.10574687 10.87890625 19.76953125 C11.18273762 28.25839546 10.27768481 35.65428669 4.859375 42.43359375 C-1.65247617 49.25824126 -7.26812033 51.49652933 -16.6171875 51.74609375 C-24.71957325 51.77746794 -30.38921278 49.94337483 -36.515625 44.609375 C-42.43518047 38.45253777 -45.62227195 31.35244979 -45.9921875 22.80859375 C-45.66413168 15.05554126 -42.53545071 8.6449539 -37.3359375 2.94140625 C-26.83764557 -5.99993561 -11.65861774 -7.62013103 0 0 Z "
    fill="#1447e6" transform="translate(409.4921875,424.62890625)" />
  <path
    d="M0 0 C1.05678965 -0.0083016 1.05678965 -0.0083016 2.13492858 -0.0167709 C4.48971785 -0.03035699 6.84344341 -0.01542051 9.19821167 -0.00050354 C10.88864593 -0.00428741 12.5790771 -0.00978802 14.26950073 -0.01687622 C18.85616855 -0.03083712 23.44246153 -0.0196576 28.02910852 -0.00316501 C32.82700555 0.01068195 37.62488074 0.00422599 42.42279053 0.0007019 C50.47787522 -0.00199998 58.53281087 0.01147528 66.58786011 0.03465271 C75.90663016 0.06128036 85.22515131 0.06300374 94.54394639 0.05126435 C103.5039585 0.04049493 112.4638804 0.04666588 121.42388535 0.06081963 C125.23963422 0.06658488 129.05531719 0.06649256 132.87106705 0.06175423 C137.36089496 0.05699076 141.85044936 0.06705978 146.34022522 0.08870888 C147.99021863 0.09428488 149.64023829 0.09473461 151.29023361 0.08975601 C153.53787062 0.08382333 155.78466557 0.09626817 158.03222656 0.11352539 C159.92091807 0.11717023 159.92091807 0.11717023 161.84776497 0.12088871 C164.88912964 0.50120544 164.88912964 0.50120544 166.76299858 1.87699795 C168.33910267 4.15019703 168.75728107 5.73238559 168.88912964 8.50120544 C166.69509979 13.09822037 166.69509979 13.09822037 163.88912964 14.50120544 C161.62826331 14.60443857 159.36426811 14.64076102 157.10105896 14.64837646 C156.04198889 14.6538915 156.04198889 14.6538915 154.96152347 14.65951794 C152.58395069 14.67057475 150.20642158 14.67440194 147.8288269 14.6782074 C146.12898621 14.6844704 144.42914689 14.69111705 142.72930908 14.69812012 C138.10334533 14.71554166 133.47739191 14.72608438 128.85140347 14.73432565 C125.96383499 14.7394719 123.07626974 14.74554771 120.18870354 14.75183678 C111.16145134 14.77088953 102.13420734 14.78512216 93.1069389 14.79344875 C82.67236984 14.80323145 72.23801234 14.82957749 61.80351788 14.86994964 C53.74659527 14.90005777 45.6897335 14.91491245 37.6327557 14.91822976 C32.8164364 14.92058575 28.0003431 14.92961749 23.18408394 14.95469093 C18.65571707 14.97788502 14.12772639 14.98224009 9.59931564 14.97192955 C7.93478968 14.971432 6.27024574 14.97781646 4.60577583 14.9914856 C2.33812149 15.00907059 0.07183704 15.00216638 -2.19581604 14.98895264 C-4.10141375 14.99253517 -4.10141375 14.99253517 -6.04550838 14.99619007 C-9.11087036 14.50120544 -9.11087036 14.50120544 -11.01181126 12.65822124 C-12.53778471 9.6633424 -12.66321536 7.81527543 -12.11087036 4.50120544 C-8.24330326 0.5051024 -5.46184847 0.00090729 0 0 Z "
    fill="#ffffff" transform="translate(320.1108703613281,267.49879455566406)" />
  <path
    d="M0 0 C1.08516907 -0.0133136 2.17033813 -0.0266272 3.28839111 -0.04034424 C5.58476995 -0.06059027 7.88126638 -0.06997849 10.17773438 -0.06933594 C13.67777723 -0.07806181 17.17272885 -0.15062274 20.671875 -0.2265625 C22.90623281 -0.23830393 25.14061451 -0.24623931 27.375 -0.25 C28.41485046 -0.27874207 29.45470093 -0.30748413 30.52606201 -0.33709717 C36.23321357 -0.26597458 39.33882184 0.40544957 43.48535156 4.47167969 C51.99944859 14.17040119 51.99944859 14.17040119 51.890625 20.046875 C50.953125 22.671875 50.953125 22.671875 48.953125 24.671875 C46.41700745 24.93257141 46.41700745 24.93257141 43.17407227 24.9465332 C41.35692467 24.96083122 41.35692467 24.96083122 39.50306702 24.97541809 C38.18850021 24.97450668 36.87393341 24.97359528 35.51953125 24.97265625 C34.16194019 24.97654205 32.80435034 24.98087648 31.44676208 24.98564148 C28.59947776 24.99310895 25.75231741 24.9928088 22.9050293 24.98754883 C19.25519965 24.98175513 15.60587763 24.99867955 11.95613194 25.0218935 C9.15171844 25.03662225 6.34742742 25.03750373 3.5429821 25.03438377 C1.54267521 25.03514741 -0.45761268 25.04902932 -2.45787048 25.06306458 C-4.27974632 25.05372139 -4.27974632 25.05372139 -6.13842773 25.04418945 C-7.74487404 25.04513359 -7.74487404 25.04513359 -9.3837738 25.0460968 C-12.046875 24.671875 -12.046875 24.671875 -13.88905334 23.39054871 C-15.9400699 20.346014 -15.51710738 16.7783989 -15.484375 13.234375 C-15.50435547 12.47060547 -15.52433594 11.70683594 -15.54492188 10.91992188 C-15.54427734 10.17935547 -15.54363281 9.43878906 -15.54296875 8.67578125 C-15.54482178 8.00361572 -15.5466748 7.3314502 -15.54858398 6.63891602 C-13.6073397 -0.97208408 -6.40860323 0.02722138 0 0 Z "
    fill="#ffffff" transform="translate(539.046875,242.328125)" />
  <path
    d="M0 0 C3.6578218 2.03993908 5.66946174 3.50419262 8 7 C8.34061873 10.0169088 8.57212107 12.09407815 8 15 C5.82425584 17.69105198 4.08934144 19.45532928 1 21 C-5.81283762 21.68128376 -5.81283762 21.68128376 -8.82421875 19.953125 C-10.98828747 18.17156722 -12.73804816 16.52390368 -14 14 C-14.41307941 9.35285663 -13.89446841 6.69294245 -11 3 C-7.33060635 0.12398876 -4.62619262 -0.66088466 0 0 Z "
    fill="#ffffff" transform="translate(622,437)" />
  <path
    d="M0 0 C3.52321907 0.86318867 5.20098615 2.74024075 7.34375 5.57421875 C7.67375 5.90421875 8.00375 6.23421875 8.34375 6.57421875 C8.93343059 13.65038583 8.93343059 13.65038583 6.46875 17.51171875 C2.79933241 21.07321229 -0.22465417 20.9621904 -5.171875 20.93359375 C-7.65625 20.57421875 -7.65625 20.57421875 -10.71875 18.19921875 C-13.5332239 14.38606056 -14.28670504 12.34766405 -13.65625 7.57421875 C-10.54687246 1.44149388 -6.77980957 -0.45947505 0 0 Z "
    fill="#ffffff" transform="translate(395.65625,437.42578125)" />
  <path
    d="M0 0 C1.22244667 0.00333092 1.22244667 0.00333092 2.46958923 0.00672913 C3.39046829 0.00680466 4.31134735 0.00688019 5.26013184 0.00695801 C6.2611644 0.01211929 7.26219696 0.01728058 8.29356384 0.02259827 C9.31316696 0.02401321 10.33277008 0.02542816 11.38327026 0.02688599 C14.65417867 0.03250355 17.92501972 0.04505902 21.19590759 0.05775452 C23.40749515 0.06276725 25.61908377 0.06733055 27.83067322 0.07142639 C33.26494116 0.08247868 38.69916957 0.09923389 44.13340759 0.12025452 C44.51559526 1.77640109 44.84735861 3.44482476 45.13340759 5.12025452 C44.13340759 6.12025452 44.13340759 6.12025452 42.26681519 6.24050903 C41.45185074 6.23828842 40.63688629 6.23606781 39.79722595 6.23377991 C38.41590736 6.23366661 38.41590736 6.23366661 37.00668335 6.23355103 C36.00565079 6.22838974 35.00461823 6.22322845 33.97325134 6.21791077 C32.95364822 6.21649582 31.9340451 6.21508087 30.88354492 6.21362305 C27.61263652 6.20800548 24.34179546 6.19545002 21.07090759 6.18275452 C18.85932004 6.17774178 16.64773141 6.17317848 14.43614197 6.16908264 C9.00187402 6.15803035 3.56764562 6.14127515 -1.86659241 6.12025452 C-2.24878008 4.46410794 -2.58054342 2.79568427 -2.86659241 1.12025452 C-1.86659241 0.12025452 -1.86659241 0.12025452 0 0 Z "
    fill="#ffffff" transform="translate(312.86659240722656,391.87974548339844)" />
  <path
    d="M0 0 C0.97582031 0.00322266 1.95164062 0.00644531 2.95703125 0.00976562 C3.93285156 -0.00634766 4.90867187 -0.02246094 5.9140625 -0.0390625 C6.84605469 -0.03970703 7.77804687 -0.04035156 8.73828125 -0.04101562 C9.59486328 -0.04399658 10.45144531 -0.04697754 11.33398438 -0.05004883 C12.38489258 0.13424683 12.38489258 0.13424683 13.45703125 0.32226562 C15.45703125 3.32226562 15.45703125 3.32226562 15.20703125 5.88476562 C14.45703125 8.32226562 14.45703125 8.32226562 12.45703125 10.32226562 C10.42578125 10.58105469 10.42578125 10.58105469 7.95703125 10.58789062 C7.07015625 10.59046875 6.18328125 10.59304688 5.26953125 10.59570312 C3.87734375 10.58410156 3.87734375 10.58410156 2.45703125 10.57226562 C1.52890625 10.58 0.60078125 10.58773438 -0.35546875 10.59570312 C-1.68578125 10.59183594 -1.68578125 10.59183594 -3.04296875 10.58789062 C-3.85765625 10.58563477 -4.67234375 10.58337891 -5.51171875 10.58105469 C-7.54296875 10.32226562 -7.54296875 10.32226562 -9.54296875 8.32226562 C-9.79296875 5.32226562 -9.79296875 5.32226562 -9.54296875 2.32226562 C-6.6042422 -0.61646093 -4.01930255 0.03057561 0 0 Z "
    fill="#ffffff" transform="translate(541.54296875,376.677734375)" />
  <path
    d="M0 0 C5.30643041 -0.50537432 7.86680312 0.69344249 12 4 C14.19689556 6.35160651 14.95385616 7.55948015 15.29296875 10.796875 C15.25816406 11.77140625 15.22335937 12.7459375 15.1875 13.75 C15.16042969 14.73484375 15.13335938 15.7196875 15.10546875 16.734375 C15.07066406 17.48203125 15.03585937 18.2296875 15 19 C10.01530948 19.29321709 6.95179356 19.18338925 3 16 C-1.16270641 11.40666878 -0.27536741 5.82351077 0 0 Z "
    fill="#ffffff" transform="translate(674,379)" />
  <path
    d="M0 0 C0.33 0 0.66 0 1 0 C1.495 2.97 1.495 2.97 2 6 C-4.46598755 10.75165045 -10.24195979 10.55448591 -18.08203125 10.4609375 C-19.33255783 10.46002106 -20.58308441 10.45910461 -21.87150574 10.4581604 C-25.17702889 10.45059684 -28.48176954 10.42466104 -31.78710938 10.39123535 C-34.49238021 10.36955014 -37.19744829 10.37029939 -39.90279102 10.37151146 C-43.12926373 10.3708381 -46.35561062 10.35317832 -49.58203125 10.3359375 C-51.40381645 10.33259903 -51.40381645 10.33259903 -53.2624054 10.32919312 C-54.38084335 10.31643341 -55.49928131 10.30367371 -56.65161133 10.29052734 C-57.63865555 10.28290375 -58.62569977 10.27528015 -59.64265442 10.26742554 C-62 10 -62 10 -64 8 C-43.87 7.67 -23.74 7.34 -3 7 C-2.01 4.69 -1.02 2.38 0 0 Z "
    fill="#2D74A6" transform="translate(591,259)" />
  <path
    d="M0 0 C0.66 0.33 1.32 0.66 2 1 C0.90653119 2.34212062 -0.2001575 3.67347975 -1.3125 5 C-1.92738281 5.7425 -2.54226563 6.485 -3.17578125 7.25 C-5 9 -5 9 -8 9 C-8.22429687 9.55171875 -8.44859375 10.1034375 -8.6796875 10.671875 C-10.40385183 13.71211744 -12.62515822 15.81425673 -15.125 18.25 C-16.03507812 19.14203125 -16.94515625 20.0340625 -17.8828125 20.953125 C-18.58148438 21.62859375 -19.28015625 22.3040625 -20 23 C-20.66 22.67 -21.32 22.34 -22 22 C-17.80691671 13.86048539 -10.25497892 8.44473782 -3.2578125 2.8203125 C-1.15830005 1.19385593 -1.15830005 1.19385593 0 0 Z "
    fill="#1447e6" transform="translate(335,152)" />
  <path
    d="M0 0 C-0.99 0.28875 -1.98 0.5775 -3 0.875 C-7.7935466 2.8625681 -10.23403047 6.72296205 -13.203125 10.8203125 C-15 13 -15 13 -18 14 C-15.67438549 7.21695767 -11.85901559 3.6424047 -6 -0.1796875 C-3.56971876 -1.17648254 -2.42789964 -0.87794585 0 0 Z "
    fill="#1447e6" transform="translate(613,422)" />
  <path
    d="M0 0 C-1.47721422 3.45201639 -3.43794001 5.64961936 -6.125 8.25 C-6.84945313 8.95640625 -7.57390625 9.6628125 -8.3203125 10.390625 C-8.87460937 10.92171875 -9.42890625 11.4528125 -10 12 C-10.734375 10.265625 -10.734375 10.265625 -11 8 C-9.453125 5.859375 -9.453125 5.859375 -7.25 3.75 C-6.17492187 2.69039062 -6.17492187 2.69039062 -5.078125 1.609375 C-3 0 -3 0 0 0 Z "
    fill="#1447e6" transform="translate(311,177)" />
  <path
    d="M0 0 C3.70425107 4.36500937 4.15960637 8.38017575 4 14 C3.32031237 16.99747133 2.37208449 19.20501308 1 22 C0.34 22.33 -0.32 22.66 -1 23 C-0.690625 22.21625 -0.38125 21.4325 -0.0625 20.625 C1.26335807 16.10148422 1.64811085 11.68568186 2 7 C1.34 7 0.68 7 0 7 C0 4.69 0 2.38 0 0 Z "
    fill="#1447e6" transform="translate(635,262)" />
  <path
    d="M0 0 C0.97608217 2.92824652 1.08226668 4.95613276 1 8 C0.34 8 -0.32 8 -1 8 C-1 12.62 -1 17.24 -1 22 C-3.54292289 19.45707711 -3.297619 18.46429802 -3.3125 14.9375 C-3.23362978 9.50262484 -2.07238606 4.99593068 0 0 Z "
    fill="#1447e6" transform="translate(594,436)" />
  <path
    d="M0 0 C4.74358974 4.61538462 4.74358974 4.61538462 6.5 7.25 C8.47132182 9.54987545 10.0546488 9.68158365 13 10 C12.34 10.66 11.68 11.32 11 12 C7.1458162 11.73419422 4.79283358 9.4988511 2 7 C0 4 0 4 0 0 Z "
    fill="#1447e6" transform="translate(319,484)" />
  <path
    d="M0 0 C0.33 0.66 0.66 1.32 1 2 C1.66 2 2.32 2 3 2 C2.96744792 4.01822917 2.93489583 6.03645833 2.90234375 8.0546875 C2.87350758 10.08185404 2.87350758 10.08185404 4 12 C3.01 13.485 3.01 13.485 2 15 C-0.10428384 9.87080814 -0.21755666 5.4389165 0 0 Z "
    fill="#1447e6" transform="translate(364,444)" />
  <path
    d="M0 0 C6.28260706 -0.23268915 11.88019467 0.59545452 18 2 C18 2.33 18 2.66 18 3 C16.02 3.33 14.04 3.66 12 4 C12 3.34 12 2.68 12 2 C10.7625 2.185625 9.525 2.37125 8.25 2.5625 C5.23720423 2.94711223 2.89989173 3.0874594 0 2 C0 1.34 0 0.68 0 0 Z "
    fill="#1447e6" transform="translate(548,94)" />
  <path
    d="M0 0 C1.75 0.125 1.75 0.125 4 1 C5.38442 2.96498322 6.71203834 4.97048465 8 7 C9.6292274 8.70328319 11.28641357 10.38161281 13 12 C12.67 12.66 12.34 13.32 12 14 C10.55620057 12.61068357 9.12022488 11.21323422 7.6875 9.8125 C6.88699219 9.03519531 6.08648437 8.25789062 5.26171875 7.45703125 C3.08923692 5.09694305 1.53869987 2.80352112 0 0 Z "
    fill="#1447e6" transform="translate(457,735)" />
  <path
    d="M0 0 C0.66 0.33 1.32 0.66 2 1 C0.95285076 2.32477959 -0.11344669 3.63443746 -1.1875 4.9375 C-1.77917969 5.66839844 -2.37085938 6.39929688 -2.98046875 7.15234375 C-5.32505203 9.29738803 -6.88391498 9.66094412 -10 10 C-6.92118304 6.12948725 -3.99926986 2.97088618 0 0 Z "
    fill="#1447e6" transform="translate(335,152)" />
  <path
    d="M0 0 C6.31390154 -0.54903492 11.39268586 1.05669718 17 4 C17.33 4.66 17.66 5.32 18 6 C17.154375 5.690625 16.30875 5.38125 15.4375 5.0625 C11.9502146 3.98461179 8.61822465 3.43418696 5 3 C5 2.34 5 1.68 5 1 C3.35 1 1.7 1 0 1 C0 0.67 0 0.34 0 0 Z "
    fill="#1447e6" transform="translate(583,215)" />
  <path
    d="M0 0 C-0.54087318 3.78611227 -2.11722332 5.55400767 -5 8 C-5.66 8 -6.32 8 -7 8 C-6.44414399 4.1090079 -4.34122117 0 0 0 Z "
    fill="#1447e6" transform="translate(551,751)" />
  <path
    d="M0 0 C1.41750563 0.11509661 2.83401169 0.24253658 4.25 0.375 C5.03890625 0.44460938 5.8278125 0.51421875 6.640625 0.5859375 C9 1 9 1 13 3 C9.7 3 6.4 3 3 3 C3 2.34 3 1.68 3 1 C2.01 0.67 1.02 0.34 0 0 Z "
    fill="#1447e6" transform="translate(553,521)" />
  <path
    d="M0 0 C1 2 1 2 0.546875 3.91015625 C0.28390625 4.62042969 0.0209375 5.33070313 -0.25 6.0625 C-0.62898438 7.13177734 -0.62898438 7.13177734 -1.015625 8.22265625 C-2 10 -2 10 -5 11 C-3.77472971 6.94718288 -2.30119506 3.55639236 0 0 Z "
    fill="#1447e6" transform="translate(266,233)" />
  <path
    d="M0 0 C-1.28524261 0.86380259 -2.57842419 1.71580369 -3.875 2.5625 C-4.59429687 3.03816406 -5.31359375 3.51382813 -6.0546875 4.00390625 C-6.69664062 4.33261719 -7.33859375 4.66132813 -8 5 C-8.66 4.67 -9.32 4.34 -10 4 C-4.4 -2.2 -4.4 -2.2 0 0 Z "
    fill="#1447e6" transform="translate(401,176)" />
  <path
    d="M0 0 C1.65 0 3.3 0 5 0 C5 0.99 5 1.98 5 3 C1.37 3 -2.26 3 -6 3 C-6 2.67 -6 2.34 -6 2 C-4.02 2 -2.04 2 0 2 C0 1.34 0 0.68 0 0 Z "
    fill="#1447e6" transform="translate(491,145)" />
  <path
    d="M0 0 C1.875 0.25 1.875 0.25 4 1 C5.125 2.8125 5.125 2.8125 6 5 C6.37125 5.7425 6.7425 6.485 7.125 7.25 C7.41375 7.8275 7.7025 8.405 8 9 C1.42857143 3.85714286 1.42857143 3.85714286 0 0 Z "
    fill="#1447e6" transform="translate(406,678)" />
  <path
    d="M0 0 C0.33 0 0.66 0 1 0 C1.33 1.98 1.66 3.96 2 6 C0.1875 7.5625 0.1875 7.5625 -2 9 C-2.99 8.67 -3.98 8.34 -5 8 C-4.0409375 7.13375 -4.0409375 7.13375 -3.0625 6.25 C-1.01776132 4.01937599 -0.41794801 2.92563609 0 0 Z "
    fill="#1447e6" transform="translate(591,259)" />
</svg>
